<svg width="390" height="1078" viewBox="0 0 390 1078" fill="none" xmlns="http://www.w3.org/2000/svg">
<path d="M255.012 438.633C189.581 308.375 -129.57 50.1119 -80 -14.5C-4.65417 -129.251 274.402 96.8026 273.3 144.615C251.545 202.12 356.796 285.503 393.807 409.557C440.072 564.626 437.194 903.715 405.8 891.116C380.685 881.036 352.224 946.757 309.539 1003.62C276.446 1038.46 94.5712 1037.56 46.3001 1104.11C-34.7736 1215.89 29.3888 1399.57 116.8 1398.11C244.951 1395.98 641.129 1185.9 830.508 1065.91C887.284 1013.39 926.335 980.524 932.465 985.249C940.123 991.153 898.736 1022.69 830.508 1065.91C673.022 1211.61 379.163 1508.58 273.3 1574.11C136.158 1693.97 -139.2 1323.11 -153.937 1151.95C-158.646 1097.25 100.633 906.394 273.3 936.116C335.538 868.919 320.444 568.89 255.012 438.633Z" fill="url(#paint0_radial_732_123)" fill-opacity="0.46"/>
<path d="M39.8001 633.616C12.2001 593.616 20.9668 490.949 28.8001 444.615C54.3001 395.115 93.8001 444.615 98.8001 462.115C103.8 479.615 106.3 520.116 132.8 568.616C154 607.416 169.133 642.116 148.8 655.116C103.967 674.782 67.4001 673.616 39.8001 633.616Z" fill="url(#paint1_radial_732_123)" fill-opacity="0.46"/>
<path d="M338.8 1163.11C308 1185.91 109.261 1152.02 162.3 1198.11C177.923 1211.69 184.8 1219.61 209.3 1222.61C233.8 1225.61 326.3 1214.11 358.3 1198.11C390.3 1182.11 411.3 1136.61 411.3 1114.11C411.3 1091.61 377.3 1134.61 338.8 1163.11Z" fill="url(#paint2_radial_732_123)" fill-opacity="0.46"/>
<defs>
<radialGradient id="paint0_radial_732_123" cx="0" cy="0" r="1" gradientUnits="userSpaceOnUse" gradientTransform="translate(-154 18.6147) rotate(27.3575) scale(1235.49 5565.19)">
<stop stop-color="#0094FF"/>
<stop offset="0.67" stop-color="#8800FF"/>
</radialGradient>
<radialGradient id="paint1_radial_732_123" cx="0" cy="0" r="1" gradientUnits="userSpaceOnUse" gradientTransform="translate(-154 18.6147) rotate(27.3575) scale(1235.49 5565.19)">
<stop stop-color="#0094FF"/>
<stop offset="0.67" stop-color="#8800FF"/>
</radialGradient>
<radialGradient id="paint2_radial_732_123" cx="0" cy="0" r="1" gradientUnits="userSpaceOnUse" gradientTransform="translate(-154 18.6147) rotate(27.3575) scale(1235.49 5565.19)">
<stop stop-color="#0094FF"/>
<stop offset="0.67" stop-color="#8800FF"/>
</radialGradient>
</defs>
</svg>
